<svg width="22" height="22" viewBox="0 0 22 22" fill="none" xmlns="http://www.w3.org/2000/svg">
<path d="M17.5304 9.54401C17.2774 7.00001 15.7427 3 10.9999 3C6.25712 3 4.72243 7.00001 4.46939 9.54401C3.58165 9.87419 2.99608 10.7095 3.00002 11.64V12.76C3.00002 13.9971 4.02337 15 5.28569 15C6.54805 15 7.5714 13.9971 7.5714 12.76V11.64C7.56727 10.7295 6.14283 9.56801 6.14283 9.56801C6.14283 9.56801 7.1061 4.60001 10.9999 4.60001C14.8938 4.60001 15.6856 8.09598 15.8489 9.56801C14.9902 9.91218 14.429 10.7308 14.4285 11.64V12.76C14.4302 13.1815 14.5528 13.594 14.7823 13.9505C15.0118 14.3069 15.339 14.593 15.7264 14.776C15.3836 15.408 14.5101 16.264 12.3632 16.52C11.934 15.8814 11.1037 15.6296 10.3815 15.9191C9.65933 16.2086 9.2471 16.9585 9.39771 17.7088C9.54832 18.4591 10.2196 19 10.9999 19C11.3023 18.9983 11.5982 18.9144 11.8548 18.7577C12.1113 18.6009 12.3184 18.3773 12.453 18.112C15.955 17.72 17.0733 15.952 17.4243 14.912C18.374 14.6105 19.0126 13.7382 18.9998 12.76V11.64C19.0038 10.7095 18.4182 9.87419 17.5304 9.54401Z" fill="white"/>
</svg>
